<svg xmlns="http://www.w3.org/2000/svg" viewBox="0 0 24 24" fill="currentColor">
  <path d="M20.317 4.37a19.791 19.791 0 0 0-4.885-1.515.074.074 0 0 0-.079.037c-.211.375-.445.865-.608 1.249a18.27 18.27 0 0 0-5.487 0 12.64 12.64 0 0 0-.617-1.249.077.077 0 0 0-.079-.037 19.736 19.736 0 0 0-4.885 1.515.069.069 0 0 0-.032.027C.533 9.046-.32 13.58.099 18.064a.082.082 0 0 0 .031.057 19.9 19.9 0 0 0 5.993 3.03.078.078 0 0 0 .084-.028c.462-.63.874-1.295 1.226-1.994a.076.076 0 0 0-.041-.106 13.107 13.107 0 0 1-1.872-.892.077.077 0 0 1-.008-.128 10.2 10.2 0 0 0 1.34-.608.074.074 0 0 1 .077-.01c3.928 1.793 8.18 1.793 12.061 0a.074.074 0 0 1 .078.01c.485.24.977.47 1.342.608a.077.077 0 0 1-.006.128 12.299 12.299 0 0 1-1.873.892.076.076 0 0 0-.041.106c.36.698.772 1.363 1.225 1.993a.077.077 0 0 0 .084.028 19.839 19.839 0 0 0 5.993-3.03.077.077 0 0 0 .031-.057c.5-5.177-.838-9.674-3.548-13.666a.061.061 0 0 0-.031-.03zM8.02 15.33c-1.183 0-2.157-1.085-2.157-2.419 0-1.333.956-2.419 2.157-2.419 1.21 0 2.176 1.096 2.157 2.419 0 1.334-.956 2.419-2.157 2.419zm7.975 0c-1.183 0-2.157-1.085-2.157-2.419 0-1.333.955-2.419 2.157-2.419 1.21 0 2.176 1.096 2.157 2.419 0 1.334-.956 2.419-2.157 2.419z"/>
</svg>