<?xml version="1.0" encoding="UTF-8"?>
<svg version="1.1" viewBox="0 0 2048 825" width="786" height="317" xmlns="http://www.w3.org/2000/svg">
<path transform="translate(670,78)" d="m0 0 9 2 12 5 29 17 11 8 3 4-1 9-12 29-2 9 3 12 27 27 11 9 5 4 11-3 30-10h15l8 10 14 21 11 22 1 4-3 10-17 16-8 7-8 6-2 1 1 9 7 28 7 25v2l27 9 17 4 6 3 6 9v59l-6 8-49 14-13 44-3 15v5l8 8 8 7 12 11 9 6v8l-3 12-13 23-8 13-9 10-4 2-19-5-25-8-8 1-7 3-36 36 1 15 3 16 6 18-1 7-3 7-23 16-23 12-3 1h-11l-10-18-16-36-11-25-10-24 1-4 20-14 18-13 14-10 13-10 9-8 8-10 9-11 7-10 15-26 7-14 14-38 5-30 1-15v-31l-1-20-5-31-14-38-8-17-12-22-11-14-13-15-9-10-11-10-10-8-13-10-26-16-5-4-1-3 3-16 12-26 11-24 14-29z" fill="#170547"/>
<path transform="translate(521,280)" d="m0 0h38l16 4 24 8 16 10 12 9 13 11 12 18 9 15 10 26 3 13v36l-3 15-8 29-8 12-14 19-8 8-11 9-7 6-19 10-15 6-14 4-13 2h-36l-25-7-12-5-21-11-16-15-8-7-6-7-12-19-5-10-9-31-1-4v-38l7-28 5-12 12-21 9-10 16-16 19-12 16-8 19-7z" fill="#170547"/>
<path transform="translate(32,420)" d="m0 0 6 2 11 8 12 11 8 7 14 12 12 9 21 16 15 11 24 16 10 7 21 13 29 17 39 20 19 10 29 12 38 15 29 9 42 12 25 6 1 1v7l-2 4-16 2h-118l-263-2-4-1-2-4z" fill="#61C58D"/>
<path transform="translate(1068,236)" d="m0 0h44l34 7 12 5 30 15 6 7-1 4-14 14-8 7-16 15-4 4-13-2-14-7-7-4-10-3h-35l-4 2 1 11 1 5 25 10 25 9 29 10 19 12 12 12 10 13 5 12v31l-10 25-4 6-16 16-21 10-14 5-26 5h-66l-32-9-28-14-13-9-2-4 4-10 15-14 13-12 9-7 9-2 23 11 16 8 8 2h33l20-4-5-16-13-6-33-13-38-14-9-6-16-13-7-8-7-11-5-17 1-19 3-14 10-19 13-12 10-8 23-10 22-5z" fill="#170547"/>
<path transform="translate(36,186)" d="m0 0h406v8l-8 3-93 27-50 19-35 16-23 11-53 31-24 16-40 28-16 13-14 11-22 18-13 11-10 9-7 5-2-1v-223z" fill="#61C58D"/>
<path transform="translate(1486,239)" d="m0 0h149l57 2 7 1v58l-72 2-59 1v11l-2 28h35l86 2 7 1-2 42-1 12-1 1h-125l1 88-1 1h-80l-1-1v-243z" fill="#170547"/>
<path transform="translate(1205,239)" d="m0 0h205l40 2 4 1v56l-2 2-73 3h-9v53l-2 132-1 1h-77l-3-2-1-5v-182h-83v-59z" fill="#170547"/>
<path transform="translate(1734,239)" d="m0 0h20l51 2 9 1 2 135v51h30l80 2 7 1v58h-201l-2-3v-245z" fill="#170547"/>
<path transform="translate(1293,553)" d="m0 0 10 2 2 7 1 16 9-2 16-2 14 14 1 2 3 45-5 3-8 1-2-4-1-34-4-10-4-2-15-2-3 25-3 26-1 1h-13v-19l2-37-30 1v20l3 17 3 6 13 4 5 2 1 2-2 4-11 3-9-1-8-4-4-5-3-9-3-46 1-7h13l31 10v-26z" fill="#1A2236"/>
<path transform="translate(986,555)" d="m0 0h11l11 4 4 4 1 6-26-1-11 7-1 1v7l29 16 9 10 3 4-1 7-4 10-7 8-7 3-5 1h-27l-5-3v-8l1-1 32-3 6-3 2-2 1-10-18-7-16-9-7-8v-9l3-13 17-10z" fill="#1B2336"/>
<path transform="translate(1847,575)" d="m0 0 17 2 5 3 7 8 2 4v19l-4 3-9 1h-9l-1-3 4-18v-5l-3-1h-8l-2 19v14l4 6 27 3-1 7-4 4-4 1h-21l-11-9-6-5-3-8v-22l7-12 4-5z" fill="#1B2336"/>
<path transform="translate(1174,574)" d="m0 0h11l9 6 8 7 2 4 2 12v5l-8 5-6 1-23-4-3-2 1-4 2-1 22-1v-10l-8-3-11-2-3 5-3 9v16l3 7 3 3 31 1-2 10-5 3-5 1h-19l-13-8-7-12-2-5v-17l9-14 4-5z" fill="#1B2336"/>
<path transform="translate(1748,574)" d="m0 0 8 1 11 11 2 3 2 21v18l-5 8-15 5h-13l-11-2-8-8v-20l11-5 21-9 3-9-2-1-19 3-6 1 6-15 1-1zm7 26-5 7-20 12 2 11 1 1h13l9-6 3-3v-22z" fill="#1B2336"/>
<path transform="translate(1378,575)" d="m0 0h18l11 9 4 5 1 3v42l-6 5-32 3-8-7-4-6v-18l21-8 7-3h8l-2-9v-5l-17 1-11 2 1-4 5-8zm17 33-12 4-10 5v10l5 5 6 1 12-4 3-3 2-17-1-1z" fill="#1B2336"/>
<path transform="translate(1566,575)" d="m0 0 14 2 6 4 9 9 1 2v36l-10 9-5 4-4 1-23-3-10-10-3-9-3-15v-6l6-10 5-5 14-8zm-6 11-7 8-2 7v17l3 5 10 10 6-1 14-6 1-1v-31l-7-7-2-1z" fill="#1B2336"/>
<path transform="translate(1052,574)" d="m0 0 9 1 8 6 4 4 2 7v41l-15 8-3 1h-21l-5-7-4-4v-16l7-8 7-3 20-4v-8l4-1-13-4h-8l-4 2h-4l2-10 2-4zm7 32-20 10-1 2v11l3 4 9-1 9-3 3-3 4-16-2-4z" fill="#1B2336"/>
<path transform="translate(1085,578)" d="m0 0 5 1 10 4 5 12 6 18 1 5 5-5 3-5 9-24 3-4 8-2 2 4v12l-11 26-8 18-1 1h-14l-12-23-6-15-4-13z" fill="#1B2336"/>
<path transform="translate(1521,553)" d="m0 0 11 1 5 2-2 5-12 5h-2l3 17-2 4-1 7-2 37-1 8h-10l-1-1-1-8-2-36-2-14-1-5 12-17z" fill="#1B2336"/>
<path transform="translate(1787,570)" d="m0 0 14 1 8 3 5 5v4h-14l3 36 7 9 6 7 1 5-1 1-16-1-4-1-7-12-3-11-1-10v-12l1-23z" fill="#1B2336"/>
<path transform="translate(1427,570)" d="m0 0 18 1 7 2 8 8v2h-20l4 25 3 16 10 11 2 4-8 3-6-2-10-6-3-8-3-12-2-22-1-20z" fill="#1B2336"/>
<path transform="translate(1692,553)" d="m0 0 13 2v84l-13-2-1-1v-82z" fill="#1B2336"/>
<path transform="translate(1249,571)" d="m0 0 2 1 1 1 7 1 3 4v26l3 17 3 6 13 4 5 2 1 2-2 4-11 3-9-1-8-4-4-5-3-9-3-46 1-5z" fill="#170746"/>
<path transform="translate(1642,575)" d="m0 0 8 2 2 1v5l-19 10-3 2-3 43-2 1-9-3-1-1v-50l1-2z" fill="#1B2336"/>
<path transform="translate(1929,574)" d="m0 0 5 1-1 9-21 7h-3v47l-1 1h-11v-56l13-6z" fill="#170547"/>
<path transform="translate(1250,616)" d="m0 0 1 4 4 1 6 5 1 4h3v-2l3-1 13 4 5 2 1 2-2 4-11 3-9-1-8-4-4-5-3-9z" fill="#1B2336"/>
<path transform="translate(1052,574)" d="m0 0 9 1 8 6v6l-2 3-8-1-7-2h-8l-4 2h-4l2-10 2-4z" fill="#1B2336"/>
<path transform="translate(1897,583)" d="m0 0h1v18h2l2 9 2 7h2l2-4 1 25-1 1h-11z" fill="#1D2738"/>
<path transform="translate(1929,574)" d="m0 0 5 1-1 9-21 7h-3v-12l-2-1 14-3z" fill="#1B2336"/>
<path transform="translate(1060,581)" d="m0 0h4 5v6l-2 3-8-1-4-2 3-5z" fill="#170945"/>
</svg>
