<?xml version="1.0" encoding="UTF-8"?>
<svg version="1.1" viewBox="0 0 2048 825" width="786" height="317" xmlns="http://www.w3.org/2000/svg">
<path transform="translate(670,78)" d="m0 0 12 3 16 8 19 11 14 10 3 3v8l-11 28-3 10 1 7 2 8 27 27 13 10 4 1 20-6 15-5 5-1h13l5 4 20 30 10 21-2 10-4 6-8 7-12 11-11 8 1 11 8 32 6 21 28 9 16 4 6 4 5 8v59l-4 6-5 3-38 11-7 2-7 21-7 25-2 10v8l5 5v2l4 2 13 12 14 11v10l-4 12-14 25-7 10-8 9-2 1-10-1-24-7-9-3h-10l-9 4-34 34v9l2 16 6 20 1 9-4 9-7 6-15 10-18 10-7 3h-13l-5-8-6-10-9-20-26-60-1-8 18-13 17-12 18-13 14-11 10-9 7-9 13-17 11-19 9-16 6-14 10-28 4-18 3-24v-45l-2-21-5-26-12-32-9-20-10-18-7-10-11-13-9-11-16-16-14-11-15-11-20-12-8-6 1-11 4-13 12-26 13-28 10-21z" fill="#2F098A"/>
<path transform="translate(517,280)" d="m0 0h45l24 7 16 6 12 8 11 8 14 12 7 9 13 21 5 10 8 23 2 8v40l-6 26-5 16-10 15-12 16-6 7-14 11-8 6-19 10-19 7-14 3-8 1h-34l-16-4-13-4-25-12-6-4-14-13-8-7-8-9-10-16-7-14-8-28-1-4v-40l7-28 7-16 11-18 16-17 10-9 18-11 19-9 14-5z" fill="#2F098A"/>
<path transform="translate(32,420)" d="m0 0 5 1 11 8 15 13 11 10 14 11 13 10 16 12 18 13 33 22 19 12 16 9 19 11 38 19 15 8 27 11 38 15 32 10 42 12 20 5 3 1v9l-2 3-24 2h-104l-158-1-110-1-6-2-1-2z" fill="#C0FEFE"/>
<path transform="translate(1066,236)" d="m0 0h47l34 7 20 9 21 11 6 7-2 5-9 10-11 10-8 7-7 7-6 5-14-2-19-10-9-3h-40l1 17 9 3 23 9 34 12 13 5 12 7 8 6 15 15 7 11 4 9v33l-10 24-4 6-15 15-19 10-18 6-20 4-9 1h-59l-15-3-22-7-28-14-11-8-2-4 3-9 19-19 8-7 12-9 9-1 23 11 15 7 6 2h37l15-3 2-1-4-13v-2l-5-2-19-8-31-12-22-8-14-7-13-11-8-7-8-10-4-8-4-13v-16l3-17 8-16 4-6 11-11 11-8 17-8 21-6z" fill="#2F098A"/>
<path transform="translate(52,186)" d="m0 0h389l1 1v7l-13 5-83 24-25 9-21 8-21 9-24 11-23 11-53 31-28 19-16 11-18 13-14 11-16 13-14 11-26 22-13 10h-2v-225z" fill="#C0FEFE"/>
<path transform="translate(1486,239)" d="m0 0h157l52 2 4 1v57l-1 1-56 2-48 1h-26v16l-2 23h56l44 1 24 1 4 1-1 30-1 17-1 7-1 1h-125l1 60v28l-1 1h-81v-247z" fill="#2F098A"/>
<path transform="translate(1204,239)" d="m0 0h209l39 2 2 1v57l-1 1-63 3h-20v80l-1 64-1 41-1 1h-78l-3-4-1-184-82-1v-60z" fill="#2F098A"/>
<path transform="translate(1732,239)" d="m0 0h33l42 2 7 1 1 41 1 68v77h52l41 1 23 1 1 1v57l-1 1h-200l-2-2v-246z" fill="#2F0A8A"/>
<path transform="translate(1292,553)" d="m0 0 9 1 3 2 1 5 1 15 1 1 17-3h8l13 13 1 2 3 38v8l-7 3h-7l-1-1-2-38-4-8-4-2-14-2-4 36-2 15-13 1-1-1v-29l1-19 1-7-28 1v28l4 13 8 3 10 3 1 1-1 7-10 3h-11l-10-6-4-6-2-6-3-49 2-5h13l21 6 10 3z" fill="#2F4069"/>
<path transform="translate(983,555)" d="m0 0h16l10 4 4 6-1 4h-27l-7 5h-2v9l19 10 10 7 8 8 3 6-2 9-5 10-7 6-12 3h-25l-5-3v-8l3-2 29-3 8-4 2-10-9-3-19-9-9-7-4-6v-11l3-10 10-7z" fill="#304169"/>
<path transform="translate(1847,575)" d="m0 0 15 1 8 4 7 9 1 2v19l-2 3-11 2h-10l1-11 3-15-10-1-2 13v20l3 5 25 3 2 1-1 7-4 4-4 1h-21l-11-9-7-6-2-6v-24l8-13 9-8z" fill="#2F4069"/>
<path transform="translate(1173,574)" d="m0 0h13l10 7 7 7 3 11v8l-6 5-3 1h-12l-16-3-3 1 2 9 2 6 32 1 1 3-3 8-5 3-6 1h-18l-12-8-8-13-1-3v-19l9-14 7-7zm-2 13-5 12-1 4 25-1 1-1v-9l-2-2-12-3z" fill="#304169"/>
<path transform="translate(1738,574)" d="m0 0h17l10 9 4 6 2 17v22l-4 6-3 3-16 4h-10l-11-2-8-8v-20l32-16 2-7-13 1-12 1 1-6 4-9zm18 25-6 7-18 11-2 2 2 11 1 1h12l9-5 4-5v-22z" fill="#304169"/>
<path transform="translate(1376,575)" d="m0 0h21l10 8 5 8v42l-4 5-12 2-11 1h-12l-8-7-3-5v-18l8-4 19-7h8l-1-14-28 2 2-6zm20 32-15 5-8 5v10l5 5 6 1 10-3 5-4 2-17-2-2z" fill="#2F4069"/>
<path transform="translate(1046,573)" d="m0 0h10l10 4 7 8 2 6v41l-9 6-6 3-5 1h-19l-9-12v-16l8-8 11-4 14-3 1-8-9-3h-8l-9 1 3-13 3-2zm12 33-17 8-3 2v13l1 3h11l9-3 4-5 3-13-1-5z" fill="#304169"/>
<path transform="translate(1564,575)" d="m0 0 14 1 9 5 8 8 1 2v36l-5 6-11 8h-12l-14-2-10-10-4-11-2-10v-10l7-11 9-7zm-4 11-5 5-3 4-1 4v19l5 8 7 6h7l12-5 3-4v-29l-6-7-2-1z" fill="#2F4069"/>
<path transform="translate(1085,578)" d="m0 0 10 2 6 4 7 19 4 12v2l5-5 5-11 7-18 4-4 7-1 2 2v13l-6 16-11 25-3 5h-14l-11-20-8-20-3-9z" fill="#304169"/>
<path transform="translate(1520,553)" d="m0 0h9l7 2 1 2-5 5-10 4 2 16-2 7-3 44-1 5h-11l-1-2-3-45-2-17 11-15 6-5z" fill="#304169"/>
<path transform="translate(1786,570)" d="m0 0h10l10 2 6 4 2 3v3l-13 1 1 20 2 15 3 5 9 12 1 5h-18l-4-2-8-16-2-10v-34z" fill="#304169"/>
<path transform="translate(1426,570)" d="m0 0h14l10 2 7 5 3 5-19 1 3 22 4 19 7 8 4 5v2l-9 3-12-6-5-6-4-14-3-32z" fill="#30416A"/>
<path transform="translate(1248,571)" d="m0 0h12l2 3 1 31 3 15 3 6 17 5 1 1-1 7-10 3h-11l-10-6-4-6-2-6-3-49z" fill="#300B8A"/>
<path transform="translate(1691,553)" d="m0 0 13 1 1 1v84l-13-2-1-1z" fill="#2E3C6A"/>
<path transform="translate(1639,575)" d="m0 0 9 1 4 2-1 5-5 3-15 8-4 44-8-1-4-2v-51l9-4z" fill="#2F4069"/>
<path transform="translate(1929,573)" d="m0 0 5 1-1 10-8 3-13 4h-3v48h-12v-57l14-6z" fill="#2E0B89"/>
<path transform="translate(1249,620)" d="m0 0 5 1 5 3 4 3 5 1 1-2 17 5 1 1-1 7-10 3h-11l-10-6-4-6-2-6z" fill="#2E3F68"/>
<path transform="translate(1897,599)" d="m0 0 2 3 5 12 4 3h1v22h-12z" fill="#2E3F68"/>
<path transform="translate(1929,573)" d="m0 0 5 1-1 10-8 3-13 4h-3l-1-14 14-3z" fill="#304169"/>
<path transform="translate(1060,580)" d="m0 0 8 1 1 1v5l-2 2h-11l-1-2 3-5z" fill="#310B8B"/>
</svg>
