<svg xmlns="http://www.w3.org/2000/svg" viewBox="0 0 24 24" fill="currentColor">
  <path d="M22.46 5.63c-.8.36-1.66.6-2.56.71.92-.55 1.63-1.42 1.96-2.46-.86.51-1.82.88-2.83 1.08-.81-.86-1.97-1.4-3.25-1.4-2.46 0-4.45 2-4.45 4.45 0 .35.04.69.12 1.01-3.7-.19-6.98-1.96-9.18-4.66-.38.66-.6 1.43-.6 2.26 0 1.54.79 2.9 1.99 3.7-.73-.02-1.42-.22-2.02-.55v.06c0 2.16 1.53 3.96 3.57 4.37-.37.1-.77.15-1.18.15-.29 0-.57-.03-.85-.08.57 1.8 2.24 3.11 4.22 3.15-1.55 1.22-3.5 1.95-5.62 1.95-.37 0-.73-.02-1.09-.06 2.01 1.29 4.4 2.04 6.97 2.04 8.36 0 12.93-6.93 12.93-12.93 0-.2 0-.39-.01-.59.89-.65 1.66-1.46 2.27-2.38z"/>
</svg>