<?xml version="1.0" encoding="UTF-8"?>
<!DOCTYPE svg PUBLIC "-//W3C//DTD SVG 1.1//EN" "http://www.w3.org/Graphics/SVG/1.1/DTD/svg11.dtd">
<svg xmlns="http://www.w3.org/2000/svg" version="1.1" width="1520px" height="1520px" style="shape-rendering:geometricPrecision; text-rendering:geometricPrecision; image-rendering:optimizeQuality; fill-rule:evenodd; clip-rule:evenodd" xmlns:xlink="http://www.w3.org/1999/xlink">
<g><path style="opacity:0.999" fill="#8dc63f" d="M 739.5,64.5 C 931.405,62.271 1097.4,125.771 1237.5,255C 1378.77,392.813 1451.1,560.979 1454.5,759.5C 1450.38,969.519 1370.72,1144.35 1215.5,1284C 1064.43,1411.57 889.758,1467.24 691.5,1451C 492.649,1427.86 331.482,1338.36 208,1182.5C 99.2042,1037.05 52.5375,873.384 68,691.5C 88.3559,508.604 166.856,356.437 303.5,235C 428.821,128.258 574.155,71.4249 739.5,64.5 Z"/></g>
<g><path style="opacity:1" fill="#f8e887" d="M 941.5,477.5 C 926.08,438.266 897.413,415.432 855.5,409C 823.939,404.602 792.939,407.102 762.5,416.5C 719.063,405.839 675.229,401.839 631,404.5C 565.042,415.708 503.208,438.208 445.5,472C 377.967,512.832 335.801,571.999 319,649.5C 315.495,666.367 312.828,683.367 311,700.5C 306.494,758.909 301.16,817.242 295,875.5C 286.96,961.996 265.626,1045 231,1124.5C 135.175,981.744 100.175,825.077 126,654.5C 158.053,477.779 246.553,337.279 391.5,233C 542.168,131.397 707.168,97.064 886.5,130C 1062.79,168.734 1200.62,262.901 1300,412.5C 1393.61,563.49 1422.28,726.157 1386,900.5C 1342.51,1079.78 1242.34,1217.28 1085.5,1313C 1019.77,1351.3 949.437,1377.47 874.5,1391.5C 868.42,1351.52 870.253,1311.86 880,1272.5C 892.377,1223.75 911.377,1177.75 937,1134.5C 967.087,1085 1001.09,1038.33 1039,994.5C 1060.63,970.532 1082.63,946.866 1105,923.5C 1137.97,892.197 1170.64,860.53 1203,828.5C 1227.33,804.169 1246.99,776.502 1262,745.5C 1287.12,688.137 1276.28,638.637 1229.5,597C 1201.9,574.856 1171.23,557.856 1137.5,546C 1070.88,526.627 1005.54,503.793 941.5,477.5 Z"/></g>
<g><path style="opacity:1" fill="#fefffd" d="M 808.5,153.5 C 880.203,150.293 948.869,165.459 1014.5,199C 1033.86,210.677 1052.53,223.344 1070.5,237C 1113.76,271.478 1156.09,307.145 1197.5,344C 1303.26,443.846 1360.26,566.179 1368.5,711C 1368.5,722.333 1368.5,733.667 1368.5,745C 1367.21,764.245 1365.21,783.745 1362.5,803.5C 1360.83,803.5 1359.17,803.5 1357.5,803.5C 1340.09,684.43 1303.92,571.43 1249,464.5C 1225.81,422.006 1199.48,381.673 1170,343.5C 1135.04,301.603 1092.54,269.77 1042.5,248C 996.94,228.39 950.606,210.723 903.5,195C 860.035,182.134 816.035,171.467 771.5,163C 771.5,161.667 771.5,160.333 771.5,159C 783.895,156.61 796.228,154.776 808.5,153.5 Z"/></g>
<g><path style="opacity:1" fill="#159a49" d="M 941.5,477.5 C 899.801,456.985 856.468,440.485 811.5,428C 795.22,423.345 778.887,419.511 762.5,416.5C 792.939,407.102 823.939,404.602 855.5,409C 897.413,415.432 926.08,438.266 941.5,477.5 Z"/></g>
<g><path style="opacity:1" fill="#fefefd" d="M 654.5,477.5 C 708.028,474.344 748.861,495.344 777,540.5C 801.838,591.444 796.838,639.111 762,683.5C 725.744,721.109 682.244,733.275 631.5,720C 589.838,705.671 562.338,677.504 549,635.5C 535.736,575.255 554.569,528.088 605.5,494C 620.915,485.362 637.248,479.862 654.5,477.5 Z"/></g>
<g><path style="opacity:1" fill="#585a5b" d="M 655.5,515.5 C 699.692,512.337 731.192,530.67 750,570.5C 763.709,614.706 751.876,650.206 714.5,677C 689.567,690.901 663.567,693.235 636.5,684C 594.017,663.8 576.184,630.3 583,583.5C 593.533,546.13 617.699,523.463 655.5,515.5 Z"/></g>
<g><path style="opacity:1" fill="#fefffd" d="M 1107.5,698.5 C 1123.29,696.971 1133.79,703.638 1139,718.5C 1141.42,738.335 1132.75,749.668 1113,752.5C 1092.95,749.422 1084.28,737.756 1087,717.5C 1090.85,707.813 1097.68,701.479 1107.5,698.5 Z"/></g>
<g><path style="opacity:1" fill="#585a5b" d="M 1234.5,782.5 C 1237.11,783.85 1237.11,785.35 1234.5,787C 1197.07,818.023 1155.74,843.023 1110.5,862C 1046.63,890.335 980.466,907.169 912,912.5C 904.358,912.321 895.358,911.654 885,910.5C 845.843,908.779 810.676,895.946 779.5,872C 775.318,867.985 771.318,863.818 767.5,859.5C 768.365,858.417 769.365,858.251 770.5,859C 797.624,875.376 826.79,884.876 858,887.5C 865.703,888.644 873.703,889.644 882,890.5C 986.257,892.244 1087.09,867.41 1184.5,816C 1202.44,806.545 1219.11,795.379 1234.5,782.5 Z"/></g>
</svg>
