<?xml version="1.0" standalone="no"?>
<!DOCTYPE svg PUBLIC "-//W3C//DTD SVG 20010904//EN"
 "http://www.w3.org/TR/2001/REC-SVG-20010904/DTD/svg10.dtd">
<svg version="1.0" xmlns="http://www.w3.org/2000/svg"
 width="600.000000pt" height="600.000000pt" viewBox="0 0 600.000000 600.000000"
 preserveAspectRatio="xMidYMid meet">

<g transform="translate(0.000000,600.000000) scale(0.100000,-0.100000)"
fill="#000000" stroke="none">
<path d="M300 3000 l0 -2700 2700 0 2700 0 0 2700 0 2700 -2700 0 -2700 0 0
-2700z m3014 2391 c295 -60 557 -190 776 -386 82 -74 86 -76 128 -72 75 8 169
64 265 158 52 52 85 78 81 65 -15 -54 -110 -230 -167 -308 -98 -137 -166 -215
-315 -359 -224 -219 -498 -424 -714 -534 l-94 -48 -40 27 c-125 85 -342 86
-467 1 -44 -31 -47 -30 -160 32 -398 219 -811 589 -1037 926 -47 71 -140 252
-140 273 0 5 40 -30 88 -77 63 -61 109 -96 162 -122 108 -55 125 -52 227 37
226 199 477 325 757 381 167 33 169 33 366 30 131 -2 202 -8 284 -24z m-1677
-934 c29 -40 88 -112 132 -162 l79 -90 -28 -56 c-103 -203 -85 -406 48 -576
84 -105 255 -189 412 -201 83 -7 85 -8 83 -32 -1 -14 -5 -69 -9 -122 l-7 -98
-258 -147 c-142 -82 -258 -151 -259 -154 0 -4 95 -59 211 -124 281 -157 309
-179 409 -322 146 -208 274 -539 466 -1195 42 -148 80 -268 83 -268 3 0 42
123 85 273 183 629 311 962 455 1179 92 139 142 179 399 323 178 99 229 132
219 141 -6 6 -123 75 -258 153 l-246 141 -7 88 c-4 48 -10 104 -13 125 l-6 37
65 0 c139 0 307 71 407 171 162 162 189 397 73 625 l-20 40 74 84 c41 47 101
120 132 162 31 43 60 77 63 78 11 0 107 -213 138 -305 70 -210 72 -237 81
-820 10 -607 22 -765 81 -1055 56 -275 165 -594 281 -823 16 -33 28 -60 26
-62 -2 -1 -124 96 -273 216 -148 120 -272 219 -275 219 -3 0 -92 -142 -199
-315 -106 -173 -197 -315 -201 -315 -4 0 -98 86 -209 190 -111 104 -203 190
-205 190 -1 0 -151 -241 -332 -535 -181 -294 -331 -535 -334 -535 -3 0 -150
235 -328 522 -177 288 -326 529 -331 537 -7 11 -57 -31 -212 -178 -112 -105
-207 -190 -212 -188 -6 2 -96 143 -201 315 -105 171 -193 311 -196 312 -3 0
-126 -97 -272 -215 -147 -118 -269 -215 -272 -215 -2 0 22 57 54 127 154 338
248 669 295 1045 20 161 34 527 35 915 0 359 13 464 79 663 37 109 128 311
140 309 3 0 30 -33 58 -72z m492 -486 c98 -72 222 -151 345 -220 l109 -60 -48
-21 c-162 -69 -359 -40 -457 68 -46 51 -62 100 -55 171 5 57 21 111 33 111 4
0 36 -22 73 -49z m1830 22 c19 -41 25 -122 12 -169 -35 -129 -217 -216 -389
-186 -38 6 -91 21 -117 32 l-49 21 110 60 c110 62 295 180 369 237 22 18 43
32 46 32 3 0 11 -12 18 -27z m-853 -278 c73 -36 159 -127 199 -210 53 -108 67
-172 72 -345 4 -100 10 -164 19 -181 8 -16 53 -48 123 -88 61 -35 111 -66 111
-69 0 -4 -21 -20 -46 -36 -229 -144 -372 -367 -514 -799 -33 -100 -63 -189
-66 -197 -3 -8 -34 71 -68 175 -74 222 -92 267 -152 389 -91 180 -211 325
-347 416 -36 25 -67 48 -67 52 0 4 50 35 111 70 73 41 116 72 125 90 10 19 14
64 14 153 0 159 19 256 71 363 97 199 270 289 415 217z"/>
</g>
</svg>
