<?xml version="1.0" encoding="UTF-8"?>
<svg version="1.1" viewBox="0 0 1000 1000" width="250" height="250" xmlns="http://www.w3.org/2000/svg">
<path transform="translate(451,330)" d="m0 0 2 3 6 48 13 93 18 130 18 131 8 58 3 10 5 8 8 5 6 2h12l10-5 7-8 5-15 15-58 14-55 23-89 15-57 13-51 7-28 1-2 3 1 13 23 9 15 13 22 7 8 8 4 3 1 134 1h122l10 3 8 7 5 9 1 4v9l-4 10-15 27-14 24-30 52-14 24-16 28-30 52-14 24-16 28-15 26-11 19-30 52-9 14-9 10-11 7-10 3-9 1h-480l-12-3-11-6-8-7-10-15-15-26-16-28-14-24-30-52-12-21-15-26-14-24-30-52-16-28-10-17-16-28-14-24-8-15-2-10 3-11 6-9 10-6 4-1h238l5 8 14 24 17 29 13 22 11 18 6 7 9 4 10 1 8-2 7-4 6-7 6-18 14-55 24-93 21-81 12-46z" fill="#D013D9"/>
<path transform="translate(257,41)" d="m0 0h486l10 2 14 7 10 10 9 14 14 25 14 24 60 104 14 24 16 28 30 52 14 24 16 28 15 26 12 21 4 8 1 4v10l-6 12-8 7-5 2-8 1h-233l-3-3-15-25-15-26-15-25-11-19-7-9-6-4-7-2h-10l-10 4-5 4-6 12-7 26-13 51-14 53-11 43-14 54-11 42-4 16-2 2-2-10-8-59-24-173-30-218-3-12-6-9-8-5-9-2-9 1-10 5-6 8-4 10-15 58-14 55-18 69-14 55-13 50-15 57h-3l-16-28-9-15-10-17-8-9-9-4-23-1h-232l-9-2-6-4-7-8-3-8-1-7 3-10 9-17 10-17 15-26 14-24 28-49 15-26 28-48 32-56 10-17 30-52 12-21 10-17 9-11 9-7 12-5z" fill="#1C6CFD"/>
<path transform="translate(660,450)" d="m0 0 3 1 13 23 9 15 13 22 7 8 8 4 3 1 134 1h122l10 3 8 7 5 9 1 4v9l-4 10-15 27-14 24-30 52-14 24-16 28-30 52-14 24-16 28-3 3-6-3-4-4-7-3-2-1-1-2-6-2-4-4-4-1-4-4-5 1-1-2-3-1-1-2-6-3-6-4-8-4-5-4v-2l-7-1-6-5h-2v-2l-4-2-8-2-4-5-6-3v-2h-2l-3-3-3 1-1-4-8-2v-2h-2v-2l-3-1v-2h-10l-1-3-2-2-2 1v-3h-3v-2l-4 1v-2h-5l-1-3h-7l-3-2v-2h-5l-7-5v-2h-2v-2l-15-3-1-6-8-1-6-3v-2h-5l-2-1-5 2-2-1v2l-3 1-3 3-4 2-1 2h-3v2l-4-2-2 1 1-9 24-93 16-61 13-51 12-46z" fill="#7305FB"/>
<path transform="translate(47,621)" d="m0 0 4 2 1 2 10 4v2h2v2l6 2 2 2 8 3 5 3 4 1 8 4 4 1v2l5 2 7 3 5 3 9 4 2 4 5 1 5 3 3 1v2l5 1 5 3 12 6 7 6 13 7 7 6 10 6 6 5 10 5 4 4 5 2v2l9 3 8 5v2l8 1 4 1 4 4v2l5 2 8 4v3l9 3 4 3 6 2 2 5 5 1v2l6 2 7 4 1 4 8 2v2h3v2l5 1 9 5v2l6 2 5 3 8 4 6 2v3l5 2 10 5 7 3 6 4v2l3-1v2l5 1 4 3 9 2 5 5 15 4 1 4 3-1 6 5 2-1v2l5 1 2 3 4 1h3l3 1 5 5 6 1 2 2 5 2 3 3h2l1 2 9 3 2 2h5l1 4h2v2l9 2 3 1v3l4 1 3 3 5 2 2 1v2l5 1 6 4 6 3 2 3 4 1v2l9 3 4 2 3 2v2l6 3h3l2 2h3v2l5 1 10 5 3 1 2 2 5 2v3l3-1 8 5 2-1v2h3v2h3l-2 5-2 4-2 1-227 1h-134l-12-3-11-6-8-7-10-15-15-26-16-28-14-24-30-52-12-21-15-26-14-24-30-52-16-28-10-17-2-3 1-4z" fill="#E40E94"/>
<path transform="translate(135,216)" d="m0 0 7 2v2h2l4 6 10 10v2l4 1 5 6v2l4 1 5 5 8 6 20 10v2l6 2 8 5 6 4 5 2 44 22 5 3 5 4 8 3 7 4 16 8 12 4 3 3 10 2 7 4v2l5 1 12 7 12 4 8 4 7 2-4 18-42 162-3 8-3-3-15-26-9-15-10-17-8-9-9-4-23-1h-232l-9-2-6-4-7-8-3-8-1-7 3-10 9-17 10-17 15-26 14-24 28-49 15-26 28-48z" fill="#9604F7"/>
<path transform="translate(627,41)" d="m0 0h116l10 2 14 7 10 10 9 14 14 25 14 24 60 104 14 24 12 21v2l-6-1-14-8-17-9-5-3-14-8-22-12-13-7-9-6-12-7-21-12-9-6-7-4-15-9-22-12-23-12-16-9-11-7-10-5-9-4-9-5-16-8-19-10-8-5-28-14-7-3-30-18-9-7-7-6 1-8-16-5-4-2z" fill="#00BDFE"/>
<path transform="translate(135,216)" d="m0 0 7 2v2h2l4 6 10 10v2l4 1 5 6v2l4 1 5 5 8 6 20 10v2l6 2 8 5 6 4 5 2 44 22 5 3 5 4 8 3 7 4 16 8 12 4 3 3 10 2 7 4v2l5 1 12 7 12 4 8 4 7 2-4 18-20 77-5-1-3-3h-5l-7-7v-3l-6-2-4-3-14-7-2-3-11-3-3-3-14-5v-1l-7-2-5-2v-2l-5-2-9-2v-2l-4-1-8-4-9-6-7-3-6-1-3-3-7-3-8-4-4-1v2l-6-2-11-7-8-4-2 2-8-5-7-4-5-2-10-5-5-2v-2l-5-1-2-1v-2l-3-1-7-8v-5l-3-1 1-6-9-18-4-4-1-2-5-2-3-2-5-1-2-1v-2l-5-2 1-6 15-26 10-17z" fill="#7305FB"/>
<path transform="translate(660,450)" d="m0 0 3 1 13 23 9 15 13 22 7 8 8 4 3 1 134 1h122l10 3 8 7 5 9 1 4v9l-4 10-15 27-14 24-30 52-4 6-4-1-12-11-10-5-8-6-9-4-1-3-6-1-7-5-6-1-5-5-7-3-6-2-1-4-7-1-3-3v-2l-5-1-3-3-5-1-2-3-10-3v-3l-4-1-5-3-5-2v-3l-7-1-2-5-4 1-3-1-3-4-6-2-1-4-4 1-9-5v-3l-6-2-11-7-7-2-3-3-10-5-5-3-4-4-9-3v-2h-2l-1-4-9-3-5-3-6-1-2-3-11-4-2-3-7-4h-5v-3h-5l-4-4 2-10 12-48z" fill="#1C6BFD"/>
<path transform="translate(619,608)" d="m0 0 2 2 4-1 1 2 4 2 1 4 5-2h7l2 3 3 1v2h2v2l10 2 3 3v2l5 1 3 2 6 1 2 5 5 1 14 7 1 3h6l3 2v2l4-1 5 3v2l9 3 2 4h3v2l4-1 3 3 2 3 5 1 1 3h6l5 4 5 2 3 3 11 4 2 4 9 3 2 4 6 1v2l8 1 3 6 5 1 10 4 3 3 5 3 3 3 12 5 11 6 6 4 1 4 6 1 5 5 1 5 7 5-6 11-14 25-14 24-6 10-7-3-4-4-7-3-2-1-1-2-6-2-4-4-4-1-4-4-5 1-1-2-3-1-1-2-6-3-6-4-8-4-5-4v-2l-7-1-6-5h-2v-2l-4-2-8-2-4-5-6-3v-2h-2l-3-3-3 1-1-4-8-2v-2h-2v-2l-3-1v-2h-10l-1-3-2-2-2 1v-3h-3v-2l-4 1v-2h-5l-1-3h-7l-3-2v-2h-5l-7-5v-2h-2v-2l-15-3-1-6-8-1-6-3v-2h-5l-2-1-5 2-2-1v2l-3 1-3 3-4 2-1 2h-3v2l-4-2-2 1 1-9 24-93z" fill="#9604F7"/>
<path transform="translate(124,761)" d="m0 0 7 1 10 5 7 3 14 7 1 3 5 1 2 3 1 2 5 2 12 7 8 4 7 3 1 2 6 2h2l5 5 4 1 5 3 16 8 9 6 9 3 9 6 3 1 1 2 10 4 14 7 10 7 12 6 9 5 8 4v2l9 2 10 8 9 4 3 2v2l6 1 11 6 3 1v2h3v2l3-1 2 4 7 1v2l3 1 4 3 5 3 6 1 7 4 9 5 5 1 1 4 5 1v2l3 1 4 3 12 2 8 3 10 3 1 2h-2v2l-6 2-8 2-76 1h-134l-12-3-11-6-8-7-10-15-15-26-16-28-14-24-30-52-12-21-7-12z" fill="#F00A5E"/>
<path transform="translate(86,682)" d="m0 0 7 3 4 1v2h2l5 5 9 4v2l5 2 6 3 7 4 5 2 8 6 3 1v2l4 1 2 1v2h2v2l6 1 7 5 7 3 11 6 3 3 5 3 9 5 7 3 1 2 5 2 10 6v2l6 2 6 4 17 9 1 2 3 1v2l4 1 15 9 6 2v2h3l1 4 6 2 8 4 5 4 5 2 6 4v2l3-1 8 4 10 6v2l5 1 9 5 6 3 1 2h2v2l5 2 5 1v2l4-1v2l4 1 5 4 3 1v2l4 1 6 3 5 2 8 2v3l7 2 1 2 5 1 7 3 2 2 10 3v3l5 1v2l5 1 2 1v2l6 1 3 4 6 3v3l8 1 5 4 5 3 2 1v2h5v2l5 1 2 2 4 2 4 3 5 1 11 8 3 3 4-1 2 4h2v2l3-1 8 2 6 1v2l3 1v3h-2l-1 5-3 1h-82v-1l8-2 3-1h3l1-3-18-6-12-2-5-2v-2l-2-1v-2l-5-1-1-4-8-1-6-4-10-5-4-1-10-5-3-3-5-2-3-3h-2v-2h-3v-2l-6-1-8-5-6-2-3-3-12-6-3-3-3-2-10-4v-2l-5-2-7-3-13-7-10-6-6-4-18-9-5-2v-2l-5-1-8-6-9-3-13-8-15-7-10-5v-3l-4 1-5-3v-2l-7-2-15-8-13-8v-3l-5-1-4-4-11-5-15-7-7-2-4-1-14-25-10-17-15-26-3-5v-4z" fill="#E80C7B"/>
<path transform="translate(451,330)" d="m0 0 2 3 6 48 13 93 18 130 2 15v12h-3l-3-4h-5l-3-3v-2l-4-1-2-1v-2h-6l-2-4h-8l-1-5-6-1v-2l-3 1-2-2-1-3h-2l-1-2-6-1v-3l-3 1-2-5-5 1-2-1v-2l-9-3v-2l-6-1-3 1-3-2-4 1-11 1 1-9 17-67 19-73 15-58 12-46z" fill="#9604F7"/>
<path transform="translate(627,41)" d="m0 0h116l10 2 14 7 10 10 9 14 14 25 14 24 30 52 13 22v2h-5l-16-8-20-11-8-5-15-10-16-12-5-4-13-8-22-12-10-7-13-8-14-8-8-4-6-4-13-5-10-4-15-7-7-3-11-6-9-6v-2l-5-1-6-5v-2h-2l1-4 2-3-12-3-17-4v-1z" fill="#00CCFE"/>
<path transform="translate(44,373)" d="m0 0 6 5 7 1 7 10 5 4 4 6 2 5h2v2h2v2h2l3 5 6 2 5 5 18 6 10 3 12 6 9 4 14 4 10 5 9 4 4 3 6 3 8 3 12 3 14 1 10 3 17 2 4 1 2 2-222 1-9-2-6-4-7-8-3-8-1-7 3-10 9-17 10-17 15-26z" fill="#D013D9"/>
<path transform="translate(174,840)" d="m0 0 8 1 7 4 7 6 6 5 6 2v2l9 2 2 1v2l7 2 8 5 3 3 6 2 9 6 5 2v2l4 1 11 6 11 4 1 3 5 2 9 4 7 4 2 1v2l5 1 9 4 5 2 3 2 4 2 5 3h3v2l6 1 5 3v2l4 1v2l7 2 9 3 8 3 1 4-2 1h-8l-2 4-2 1h-114l-12-5-11-8-9-12-14-24-16-28-15-26-5-8 1-5z" fill="#F70530"/>
<path transform="translate(518,437)" d="m0 0 2 2 8 3 4 4v2h7l4 4 7 3 9 6 6 2 4 4 9 4 7 2 7 4 2 4 5 2-4 17-17 66-22 84-4 16-2 2-2-10-8-59-22-159z" fill="#7306FB"/>
<path transform="translate(115,732)" d="m0 0h8l8 5v2l4 2 5 3 7 3 16 8 9 6 17 10 18 9 1 2 6 2v2l9 3 10 6 9 6 13 8 3 1v2l6 2 19 10 3 3 5 1 1 3h2v2l9 2 3 3 18 9v2l5 2 4 2h4l6 7 9 3 6 4h2v3l4 1 7 4 3 1v2l7 1 5 2 2 3 8 3v2l10 3 7 4 2 1v3h4v2l4 1 7 3 8 6 4 1 2 3 5 2 4 4v2l4-1 10 5v2l5 2 5 4v2h3v2l5 1 9 3 8 2 4 3-2 5 1 2-3 1h-33v-1l8-2 3-1h3l1-3-18-6-12-2-5-2v-2l-2-1v-2l-5-1-1-4-8-1-6-4-10-5-4-1-10-5-3-3-5-2-3-3h-2v-2h-3v-2l-6-1-8-5-6-2-3-3-12-6-3-3-3-2-10-4v-2l-5-2-7-3-13-7-10-6-6-4-18-9-5-2v-2l-5-1-8-6-9-3-13-8-15-7-10-5v-3l-4 1-5-3v-2l-7-2-15-8-13-8v-3l-5-1-4-4-11-5-15-7-7-2-4-1-14-25 1-3h5z" fill="#EC0D69"/>
<path transform="translate(155,803)" d="m0 0 7 1v2l10 1 4 4 9 2 6 4 11 6 4 5 7 3h3l3 3 4 2 3 2 8 4 3 3 11 4 9 7 30 15 9 7 8 1 2 1v2l3 3 7 1v2l5 2 8 4 7 2 1 4 5 2 8 4v2l6 2v2h7v2l9 4v2h3l1 2 13 5 13 7 2 1v2l4-1 7 5 9 3 7 2 3 3h-3l-1 3-6 3-6 2-25 1h-134v-1l108-1 4-4 10-1-1-3-11-4-6-2-7-3v-2l-4-1v-2l-7-2-5-3-5-2-4-3-4-1-2-2-11-4-7-3v-2l-6-2-4-3-10-4-6-5-12-4-9-6-3-1v-2l-6-2-8-5-9-4v-2l-6-2-4-3-5-2v-2l-11-3v-2l-7-2-11-10-5-2-6-3-7 1-2 2-20-35 1-5z" fill="#F2084B"/>
<path transform="translate(627,41)" d="m0 0h116l10 2 14 7 10 10 9 14 14 25 14 24 15 26 7 12v2h-5l-19-12-13-9-12-11-11-8-15-9-10-7-17-11-22-12-11-8-11-6-8-4v-2l-5-2-5-4 1-5h2v-4l-12-2-16-3-4-1-16-1z" fill="#00D8FE"/>
<path transform="translate(451,330)" d="m0 0 2 3 6 48 13 93 10 72-1 5-4-3v-3h-2l-2-6h-2l-4-9-5-6-4-4-5-7-1-3-5-2-1-1v-7h-2v-2l-9-1-2-2-6-2-4-2h-3l-2 4h-2v-2h-6l-1-3 24-93 10-38 7-27z" fill="#7306FB"/>
<path transform="translate(555,570)" d="m0 0h4l1 4h6l8 5-4 18-14 53-4 16-2 2-2-10-8-59-2-14v-6l4-1 2-4h7z" fill="#9604F7"/>
<path transform="translate(451,330)" d="m0 0 2 3 6 48 2 14v7l-2 1-8-3-4-4-9-2-2-1v-7l13-51z" fill="#2166FD"/>
<path transform="translate(334,537)" d="m0 0 4 2v2l2 1v2l3 1-2 4-3-3-4-7z" fill="#CD19DC"/>
<path transform="translate(322,517)" d="m0 0 5 2 2 10-4-5-3-5z" fill="#D013D9"/>
</svg>
