<?xml version="1.0" standalone="no"?>
<!DOCTYPE svg PUBLIC "-//W3C//DTD SVG 20010904//EN"
 "http://www.w3.org/TR/2001/REC-SVG-20010904/DTD/svg10.dtd">
<svg version="1.0" xmlns="http://www.w3.org/2000/svg"
 width="64.000000pt" height="64.000000pt" viewBox="0 0 64.000000 64.000000"
 preserveAspectRatio="xMidYMid meet">

<g transform="translate(0.000000,64.000000) scale(0.100000,-0.100000)"
fill="#000000" stroke="none">
<path d="M223 622 c-145 -52 -232 -181 -221 -327 17 -210 239 -350 430 -271
81 33 130 76 169 148 30 57 34 71 34 143 0 95 -29 168 -90 230 -82 81 -219
114 -322 77z m183 -37 c59 -17 125 -71 158 -128 23 -40 43 -107 32 -107 -3 0
-41 11 -85 25 -119 38 -314 177 -285 204 24 23 113 26 180 6z m-115 -139 c34
-25 55 -46 48 -46 -20 0 -151 68 -184 96 l-30 25 24 20 24 20 29 -35 c15 -19
56 -55 89 -80z m-118 -13 c20 -14 74 -41 120 -59 l82 -34 -169 0 -168 0 6 32
c4 18 16 52 27 76 20 41 22 42 43 27 11 -8 38 -27 59 -42z m131 -162 c-82 -32
-137 -63 -177 -99 -26 -25 -27 -25 -42 -6 -15 21 -45 99 -45 121 0 10 35 13
168 13 l167 -1 -71 -28z m291 -13 c-19 -89 -104 -178 -194 -205 -59 -17 -155
-13 -175 7 -13 14 60 84 144 139 46 29 196 90 223 91 5 0 6 -15 2 -32z m-286
-50 c-24 -17 -65 -53 -91 -80 l-46 -48 -24 20 c-23 19 -23 19 -3 35 42 33 97
66 143 85 67 27 71 25 21 -12z"/>
</g>
</svg>
