<?xml version="1.0" encoding="utf-8"?>
<!-- Generator: Adobe Illustrator 25.0.1, SVG Export Plug-In . SVG Version: 6.00 Build 0)  -->
<svg version="1.0" id="katman_1" xmlns="http://www.w3.org/2000/svg" xmlns:xlink="http://www.w3.org/1999/xlink" x="0px" y="0px"
	 viewBox="0 0 560 400" style="enable-background:new 0 0 560 400;" xml:space="preserve">
<style type="text/css">
	.st0{fill:#FFE81C;}
	.st1{fill:#3F3F3F;}
</style>
<g transform="matrix(.0857143 0 0 .0857143 130 50)">
	<path class="st0" d="M1750,0c966.5,0,1750,783.5,1750,1750s-783.5,1750-1750,1750S0,2716.5,0,1750S783.5,0,1750,0z"/>
	<path class="st1" d="M2887.2,949.3l-205.9,668.8h-517.6l-79.9,60.9l-280.5,1160.9h-779.5l145.8-433.5l11-42.3l-318.9,242.1
		l441.5-641.7l103.9-346.4H701.8l204-668.8h951.9l361.9-231.8L2072,949.3H2887.2z"/>
	<g>
		<path class="st0" d="M2609.4,1518l146.5-450.3h-651.6l-179.6,293.8l409.9,154.6L2609.4,1518z"/>
		<path class="st0" d="M1185.9,2265.6l928.3-703.5l-409.9-172.4l25.1-40.7l244.8-383.7l1.9-3.8l-703.4,450.7l368.1,192.2
			L1185.9,2265.6z"/>
		<path class="st0" d="M1706.6,2709.4l207.8-793.7l-617.3,480.8L1197,2709h509.6L1706.6,2709.4z"/>
		<path class="st0" d="M1012,1424.7l556.8-355.5l-597.1-1.5l-138.2,448l397.7,2.3L1012,1424.7z"/>
	</g>
</g>
</svg>
